<?xml version="1.0" encoding="UTF-8"?>
<svg width="36" height="36" viewBox="0 0 36 36" fill="none" xmlns="http://www.w3.org/2000/svg">
  <path d="M29.37 19.5C29.31 15.9 32.5 14.1 32.6 14.05C31.1 11.65 28.85 11.3 28.1 11.25C25.9 11.05 23.75 12.5 22.75 12.5C21.7 12.5 20.05 11.3 18.25 11.35C15.85 11.4 13.6 12.6 12.35 14.4C9.8 18.15 11.35 23.85 13.85 27.05C15.1 28.6 16.55 30.35 18.35 30.3C20.1 30.25 20.7 29.4 22.75 29.4C24.75 29.4 25.3 30.3 27.15 30.25C29.05 30.2 30.35 28.65 31.55 27.05C32.9 25.25 33.4 23.45 33.45 23.35C33.35 23.35 29.45 24.85 29.37 19.5ZM26.65 8.5C27.65 7.3 28.4 5.65 28.25 4C26.65 4.05 24.7 5.05 23.65 6.25C22.75 7.3 21.85 9 22 10.6C23.8 10.7 25.6 9.7 26.65 8.5Z" fill="black"/>
</svg> 