<?xml version="1.0" encoding="UTF-8"?>
<svg width="32" height="32" viewBox="0 0 32 32" fill="none" xmlns="http://www.w3.org/2000/svg">
  <path d="M31.4986 16.3137C31.4986 15.2157 31.3986 14.1177 31.1986 13.0197H16.4986V19.3137H24.8986C24.5986 21.0117 23.4986 22.4097 21.8986 23.2077V27.0117H27.2986C30.2986 24.2097 31.4986 20.4117 31.4986 16.3137Z" fill="#4285F4"/>
  <path d="M16.4986 32C20.6986 32 24.2986 30.6117 27.2986 27.0117L21.8986 23.2077C20.4986 24.0057 18.6986 24.4047 16.4986 24.4047C12.3986 24.4047 8.89859 21.6117 7.69859 17.9097H2.09859V21.8097C5.09859 28.4097 10.4986 32 16.4986 32Z" fill="#34A853"/>
  <path d="M7.69859 17.9097C7.49859 17.2117 7.39859 16.5137 7.39859 15.8157C7.39859 15.1177 7.49859 14.4197 7.69859 13.7217V9.82166H2.09859C1.39859 11.2197 0.998594 12.7167 0.998594 14.3157C0.998594 15.9147 1.39859 17.4117 2.09859 18.8097L7.69859 17.9097Z" fill="#FBBC05"/>
  <path d="M16.4986 7.22666C18.8986 7.22666 20.9986 8.02466 22.6986 9.62066L27.2986 5.02466C24.2986 2.22266 20.6986 0.833984 16.4986 0.833984C10.4986 0.833984 5.09859 4.42466 2.09859 11.0247L7.69859 14.9247C8.89859 11.2227 12.3986 8.42966 16.4986 8.42966V7.22666Z" fill="#EA4335"/>
</svg> 